<svg width="47" height="36" viewBox="0 0 47 36" fill="none" xmlns="http://www.w3.org/2000/svg">
<path d="M18.0411 24C25.3415 18.5266 30.0636 9.81359 30.0636 0H18.0382C18.0382 9.94113 9.9622 18 0 18V30C6.76795 30 13.0136 27.7683 18.0382 24.0022V36H30.0636V24H18.0411Z" fill="#E53617"/>
<path fill-rule="evenodd" clip-rule="evenodd" d="M41.9018 6.14143C42.5256 5.88518 42.9438 5.26925 42.9438 4.57446C42.9438 3.53072 42.1461 2.79999 41.0683 2.79999H38.825V8.19999H39.771V6.31346H40.9332L42.0302 8.19999H43.1363L41.9018 6.14143ZM41.7377 3.95541C41.5747 3.81291 41.3327 3.72481 41.0289 3.72481H39.771V5.38864H41.0289C41.6292 5.38864 41.9978 5.03393 41.9978 4.57446C41.9978 4.3013 41.8979 4.09539 41.7377 3.95541Z" fill="#E53617"/>
<path fill-rule="evenodd" clip-rule="evenodd" d="M46.0385 5.5C46.0385 8.53757 43.5712 11 40.5276 11C37.484 11 35.0167 8.53757 35.0167 5.5C35.0167 2.46243 37.484 0 40.5276 0C43.5712 0 46.0385 2.46243 46.0385 5.5ZM45.2369 5.5C45.2369 8.09574 43.1284 10.2 40.5276 10.2C37.9267 10.2 35.8183 8.09574 35.8183 5.5C35.8183 2.90426 37.9267 0.8 40.5276 0.8C43.1284 0.8 45.2369 2.90426 45.2369 5.5Z" fill="#E53617"/>
</svg>
